<?xml version="1.0" encoding="utf-8"?>
<!-- Generator: Adobe Illustrator 22.1.0, SVG Export Plug-In . SVG Version: 6.00 Build 0)  -->
<svg version="1.1" id="Layer_1" xmlns="http://www.w3.org/2000/svg" xmlns:xlink="http://www.w3.org/1999/xlink" x="0px" y="0px"
	 viewBox="0 0 640 480" style="enable-background:new 0 0 640 480;" xml:space="preserve">
<style type="text/css">
	.st0{fill:#003163;stroke:#000000;stroke-width:4;stroke-miterlimit:10;}
	.st1{fill:#FFFFFF;stroke:#000000;stroke-width:3;stroke-miterlimit:10;}
	.st2{fill:#F4AA03;stroke:#000000;stroke-width:3;stroke-miterlimit:10;}
	.st3{fill:#FFFFFF;stroke:#000000;stroke-miterlimit:10;}
	.st4{fill:#F4AA03;stroke:#000000;stroke-width:4;stroke-miterlimit:10;}
	.st5{fill:#003366;stroke:#000000;stroke-width:4;stroke-miterlimit:10;}
	.st6{fill:#CFFD74;stroke:#000000;stroke-width:4;stroke-miterlimit:10;}
	.st7{fill:#FD7474;stroke:#000000;stroke-width:4;stroke-miterlimit:10;}
	.st8{stroke:#000000;stroke-width:4;stroke-miterlimit:10;}
</style>
<path class="st0" d="M587.6,323.9C570,442.5,483.3,468,321.5,468S76.2,444.2,55.6,323.9C36.9,214.5,166.9,121.6,317.4,123.7
	C469,125.8,604.5,210.4,587.6,323.9z"/>
<path class="st1" d="M498.5,341.4c0,61.6-63.6,100.8-177.8,100.8S142.9,403,142.9,341.4s63.6-111.6,177.8-111.6
	S498.5,279.8,498.5,341.4z"/>
<polygon class="st2" points="323.5,257.7 267.4,212.7 383.7,217 "/>
<path class="st3" d="M474.9,192.3c0,11.3-9.3,20.4-31.1,20.4s-39.4-9.1-39.4-20.4c0-11.3,21.8-20.4,43.5-20.4S474.9,181,474.9,192.3
	z"/>
<path class="st3" d="M234.5,192.3c0,11.3-17.6,20.4-39.4,20.4s-31.1-9.1-31.1-20.4c0-11.3,5.2-20.4,26.9-20.4S234.5,181,234.5,192.3
	z"/>
<path class="st4" d="M246.9,443.3c0,25.5-12.4,24.7-89.1,24.7S27.2,447.3,27.2,421.9c0-25.5,53.9-3.2,130.6-3.2
	S246.9,417.8,246.9,443.3z"/>
<path class="st4" d="M396.1,443.3c0,25.5,12.6,24.7,90,24.7S622,447.3,622,421.9c0-25.5-58.6-3.2-135.9-3.2S396.1,417.8,396.1,443.3
	z"/>
<path class="st0" d="M93.6,342.5c0,24.3,32.9,37.5-8.3,37.5s-62.2-13.3-62.2-37.5c0-24.3-3.9-44,37.3-44S93.6,318.2,93.6,342.5z"/>
<path class="st5" d="M555.2,338.2c0,18.6-31,39.7,7,39.7s59.8-13.3,59.8-37.5c0-24.3-10.1-44-48-44S555.2,313.9,555.2,338.2z"/>
<path class="st6" d="M479,146.2c0,15.4-91.2-4.3-178.2-4.3s-165.8,24-165.8,8.6c0-9.7,76-38.6,174.1-38.6
	C418.2,111.8,479,142.2,479,146.2z"/>
<path class="st7" d="M470.7,123.6c0,29-62.7-3.2-159.6-3.2c-85.8,0-167.9,34.4-167.9,5.4s97.2-93.3,172-93.3
	C401.1,32.5,470.7,94.6,470.7,123.6z"/>
<ellipse class="st7" cx="309.1" cy="30.3" rx="37.3" ry="19.3"/>
<path class="st8" d="M447.9,195.5c0,4.1,1.8,7.5-6.2,7.5c-8,0-14.5-3.4-14.5-7.5s6.5-7.5,14.5-7.5
	C449.7,188,447.9,191.4,447.9,195.5z"/>
<path class="st8" d="M207.5,195.5c0,4.1-2.4,5.4-10.4,5.4c-8,0-10.4-1.2-10.4-5.4S185,188,193,188S207.5,191.4,207.5,195.5z"/>
</svg>
