<?xml version="1.0" encoding="utf-8"?>
<!-- Generator: Adobe Illustrator 22.1.0, SVG Export Plug-In . SVG Version: 6.00 Build 0)  -->
<svg version="1.1" id="Layer_1" xmlns="http://www.w3.org/2000/svg" xmlns:xlink="http://www.w3.org/1999/xlink" x="0px" y="0px"
	 viewBox="0 0 640 480" style="enable-background:new 0 0 640 480;" xml:space="preserve">
<style type="text/css">
	.st0{fill:#003163;stroke:#000000;stroke-width:4;stroke-miterlimit:10;}
	.st1{fill:#FFFFFF;stroke:#000000;stroke-width:3;stroke-miterlimit:10;}
	.st2{fill:#F4AA03;stroke:#000000;stroke-width:3;stroke-miterlimit:10;}
	.st3{fill:#FFFFFF;stroke:#000000;stroke-miterlimit:10;}
	.st4{fill:#F4AA03;stroke:#000000;stroke-width:4;stroke-miterlimit:10;}
	.st5{fill:#003366;stroke:#000000;stroke-width:4;stroke-miterlimit:10;}
	.st6{fill:#CFFD74;stroke:#000000;stroke-width:4;stroke-miterlimit:10;}
	.st7{fill:#FD7474;stroke:#000000;stroke-width:4;stroke-miterlimit:10;}
	.st8{stroke:#000000;stroke-width:4;stroke-miterlimit:10;}
</style>
<path class="st0" d="M459.5,328.3C450,452.3,403.2,479,316,479s-132.3-24.9-143.4-150.7c-10.1-114.4,60-211.6,141.1-209.4
	C395.5,121,468.5,209.5,459.5,328.3z"/>
<path class="st1" d="M411.4,346.6c0,64.4-34.3,105.5-95.9,105.5s-95.9-41-95.9-105.5s34.3-116.7,95.9-116.7S411.4,282.1,411.4,346.6
	z"/>
<polygon class="st2" points="317,259.1 286.8,211.9 349.5,216.4 "/>
<path class="st3" d="M398.7,190.6c0,11.8-5,21.3-16.8,21.3c-11.7,0-21.2-9.5-21.2-21.3c0-11.8,11.7-21.3,23.5-21.3
	C395.9,169.3,398.7,178.9,398.7,190.6z"/>
<path class="st3" d="M269,190.6c0,11.8-9.5,21.3-21.2,21.3c-11.7,0-16.8-9.5-16.8-21.3c0-11.8,2.8-21.3,14.5-21.3
	C257.3,169.3,269,178.9,269,190.6z"/>
<path class="st4" d="M275.7,453.2c0,26.6-6.7,25.8-48.1,25.8s-70.4-21.6-70.4-48.2c0-26.6,29.1-3.4,70.4-3.4
	S275.7,426.5,275.7,453.2z"/>
<path class="st4" d="M356.2,453.2c0,26.6,6.8,25.8,48.5,25.8s73.3-21.6,73.3-48.2c0-26.6-31.6-3.4-73.3-3.4S356.2,426.5,356.2,453.2
	z"/>
<path class="st0" d="M193,347.7c0,25.4,17.7,39.3-4.5,39.3s-33.5-13.9-33.5-39.3c0-25.4-2.1-46,20.1-46S193,322.3,193,347.7z"/>
<path class="st5" d="M442,343.2c0,19.4-16.7,41.5,3.8,41.5c20.5,0,32.2-13.9,32.2-39.3s-5.4-46-25.9-46S442,317.8,442,343.2z"/>
<path class="st6" d="M400.9,142.4c0,16.1-49.2-4.5-96.1-4.5s-89.4,25.1-89.4,9c0-10.1,41-40.4,93.9-40.4
	C368.1,106.5,400.9,138.2,400.9,142.4z"/>
<path class="st7" d="M396.4,118.8c0,30.4-33.8-3.4-86-3.4c-46.3,0-90.5,36-90.5,5.6s52.4-97.6,92.7-97.6
	C358.9,23.4,396.4,88.5,396.4,118.8z"/>
<ellipse class="st7" cx="309.3" cy="21.2" rx="20.1" ry="20.2"/>
<path class="st8" d="M384.1,194c0,4.3,1,7.9-3.4,7.9s-7.8-3.5-7.8-7.9s3.5-7.9,7.8-7.9S384.1,189.7,384.1,194z"/>
<path class="st8" d="M254.5,194c0,4.3-1.3,5.6-5.6,5.6s-5.6-1.3-5.6-5.6s-1-7.9,3.4-7.9S254.5,189.7,254.5,194z"/>
</svg>
