<?xml version="1.0" encoding="utf-8"?>
<!-- Generator: Adobe Illustrator 22.1.0, SVG Export Plug-In . SVG Version: 6.00 Build 0)  -->
<svg version="1.1" id="Layer_1" xmlns="http://www.w3.org/2000/svg" xmlns:xlink="http://www.w3.org/1999/xlink" x="0px" y="0px"
	 viewBox="0 0 640 480" style="enable-background:new 0 0 640 480;" xml:space="preserve">
<style type="text/css">
	.st0{fill:#003163;stroke:#000000;stroke-width:4;stroke-miterlimit:10;}
	.st1{fill:#FFFFFF;stroke:#000000;stroke-width:3;stroke-miterlimit:10;}
	.st2{fill:#F4AA03;stroke:#000000;stroke-width:3;stroke-miterlimit:10;}
	.st3{fill:#FFFFFF;stroke:#000000;stroke-miterlimit:10;}
	.st4{fill:#F4AA03;stroke:#000000;stroke-width:4;stroke-miterlimit:10;}
	.st5{fill:#003366;stroke:#000000;stroke-width:4;stroke-miterlimit:10;}
	.st6{fill:#CFFD74;stroke:#000000;stroke-width:4;stroke-miterlimit:10;}
	.st7{fill:#FD7474;stroke:#000000;stroke-width:4;stroke-miterlimit:10;}
	.st8{stroke:#000000;stroke-width:4;stroke-miterlimit:10;}
</style>
<path class="st0" d="M413.7,304.3c-4.2,55.3-25.2,67.2-64.2,67.2s-59.2-11.1-64.2-67.2c-4.5-51,26.9-94.3,63.2-93.3
	C385.1,212,417.8,251.4,413.7,304.3z"/>
<path class="st1" d="M392.2,312.5c0,28.7-15.3,47-42.9,47c-27.6,0-42.9-18.3-42.9-47s15.3-52,42.9-52
	C376.9,260.5,392.2,283.8,392.2,312.5z"/>
<polygon class="st2" points="350,273.5 336.4,252.5 364.5,254.5 "/>
<path class="st3" d="M386.5,243c0,5.2-2.3,9.5-7.5,9.5s-9.5-4.3-9.5-9.5s5.3-9.5,10.5-9.5S386.5,237.8,386.5,243z"/>
<path class="st3" d="M328.5,243c0,5.2-4.3,9.5-9.5,9.5s-7.5-4.3-7.5-9.5s1.3-9.5,6.5-9.5S328.5,237.8,328.5,243z"/>
<path class="st4" d="M331.5,360c0,11.9-3,11.5-21.5,11.5s-31.5-9.6-31.5-21.5s13-1.5,31.5-1.5S331.5,348.1,331.5,360z"/>
<path class="st4" d="M367.5,360c0,11.9,3,11.5,21.7,11.5c18.7,0,32.8-9.6,32.8-21.5s-14.1-1.5-32.8-1.5
	C370.5,348.5,367.5,348.1,367.5,360z"/>
<path class="st0" d="M294.5,313c0,11.3,7.9,17.5-2,17.5s-15-6.2-15-17.5s-0.9-20.5,9-20.5S294.5,301.7,294.5,313z"/>
<path class="st5" d="M405.9,311c0,8.7-7.5,18.5,1.7,18.5S422,323.3,422,312s-2.4-20.5-11.6-20.5S405.9,299.7,405.9,311z"/>
<path class="st6" d="M387.5,221.5c0,7.2-22-2-43-2s-40,11.2-40,4c0-4.5,18.3-18,42-18C372.8,205.5,387.5,219.7,387.5,221.5z"/>
<path class="st7" d="M385.5,211c0,13.5-15.1-1.5-38.5-1.5c-20.7,0-40.5,16-40.5,2.5s23.5-43.5,41.5-43.5
	C368.7,168.5,385.5,197.5,385.5,211z"/>
<circle class="st7" cx="346.5" cy="167.5" r="9"/>
<path class="st8" d="M380,244.5c0,1.9,0.4,3.5-1.5,3.5s-3.5-1.6-3.5-3.5s1.6-3.5,3.5-3.5S380,242.6,380,244.5z"/>
<path class="st8" d="M322,244.5c0,1.9-0.6,2.5-2.5,2.5s-2.5-0.6-2.5-2.5s-0.4-3.5,1.5-3.5S322,242.6,322,244.5z"/>
</svg>
