<?xml version="1.0" encoding="utf-8"?>
<!-- Generator: Adobe Illustrator 22.1.0, SVG Export Plug-In . SVG Version: 6.00 Build 0)  -->
<svg version="1.1" id="Layer_1" xmlns="http://www.w3.org/2000/svg" xmlns:xlink="http://www.w3.org/1999/xlink" x="0px" y="0px"
	 viewBox="0 0 640 480" style="enable-background:new 0 0 640 480;" xml:space="preserve">
<style type="text/css">
	.st0{fill:#003163;stroke:#000000;stroke-width:4;stroke-miterlimit:10;}
	.st1{fill:#FFFFFF;stroke:#000000;stroke-width:3;stroke-miterlimit:10;}
	.st2{fill:#F4AA03;stroke:#000000;stroke-width:3;stroke-miterlimit:10;}
	.st3{fill:#FFFFFF;stroke:#000000;stroke-miterlimit:10;}
	.st4{fill:#F4AA03;stroke:#000000;stroke-width:4;stroke-miterlimit:10;}
	.st5{fill:#003366;stroke:#000000;stroke-width:4;stroke-miterlimit:10;}
	.st6{fill:#CFFD74;stroke:#000000;stroke-width:4;stroke-miterlimit:10;}
	.st7{fill:#FD7474;stroke:#000000;stroke-width:4;stroke-miterlimit:10;}
	.st8{stroke:#000000;stroke-width:4;stroke-miterlimit:10;}
</style>
<path class="st0" d="M475.8,323.9C466.5,442.5,420.6,468,335,468s-129.8-23.8-140.7-144.1c-9.9-109.4,58.9-202.3,138.5-200.2
	C413,125.8,484.7,210.4,475.8,323.9z"/>
<path class="st1" d="M428.6,341.4c0,61.6-33.7,100.8-94.1,100.8s-94.1-39.2-94.1-100.8s33.7-111.6,94.1-111.6
	S428.6,279.8,428.6,341.4z"/>
<polygon class="st2" points="336,257.7 306.4,212.7 367.9,217 "/>
<path class="st3" d="M416.1,192.3c0,11.3-4.9,20.4-16.5,20.4s-20.8-9.1-20.8-20.4c0-11.3,11.5-20.4,23-20.4S416.1,181,416.1,192.3z"
	/>
<path class="st3" d="M288.9,192.3c0,11.3-9.3,20.4-20.8,20.4c-11.5,0-16.5-9.1-16.5-20.4c0-11.3,2.7-20.4,14.3-20.4
	S288.9,181,288.9,192.3z"/>
<path class="st4" d="M295.5,443.3c0,25.5-6.6,24.7-47.2,24.7s-69.1-20.7-69.1-46.1c0-25.5,28.5-3.2,69.1-3.2
	S295.5,417.8,295.5,443.3z"/>
<path class="st4" d="M374.5,443.3c0,25.5,6.7,24.7,47.6,24.7s71.9-20.7,71.9-46.1c0-25.5-31-3.2-71.9-3.2S374.5,417.8,374.5,443.3z"
	/>
<path class="st0" d="M214.3,342.5c0,24.3,17.4,37.5-4.4,37.5s-32.9-13.3-32.9-37.5c0-24.3-2.1-44,19.7-44S214.3,318.2,214.3,342.5z"
	/>
<path class="st5" d="M458.7,338.2c0,18.6-16.4,39.7,3.7,39.7c20.1,0,31.7-13.3,31.7-37.5c0-24.3-5.3-44-25.4-44
	C448.5,296.4,458.7,313.9,458.7,338.2z"/>
<path class="st6" d="M418.3,146.2c0,15.4-48.3-4.3-94.3-4.3s-87.7,24-87.7,8.6c0-9.7,40.2-38.6,92.1-38.6
	C386.1,111.8,418.3,142.2,418.3,146.2z"/>
<path class="st7" d="M413.9,123.6c0,29-33.2-3.2-84.4-3.2c-45.4,0-88.8,34.4-88.8,5.4s51.4-93.3,91-93.3
	C377.1,32.5,413.9,94.6,413.9,123.6z"/>
<ellipse class="st7" cx="328.4" cy="30.3" rx="19.7" ry="19.3"/>
<path class="st8" d="M401.9,195.5c0,4.1,0.9,7.5-3.3,7.5c-4.2,0-7.7-3.4-7.7-7.5s3.4-7.5,7.7-7.5C402.8,188,401.9,191.4,401.9,195.5
	z"/>
<path class="st8" d="M274.7,195.5c0,4.1-1.2,5.4-5.5,5.4c-4.2,0-5.5-1.2-5.5-5.4s-0.9-7.5,3.3-7.5
	C271.2,188,274.7,191.4,274.7,195.5z"/>
</svg>
